<svg preserveAspectRatio="none" width="100%" height="100%" overflow="visible" style="display: block;" viewBox="0 0 48 48" fill="none" xmlns="http://www.w3.org/2000/svg">
<g id="mark-contained-gradient-white-jira 1">
<g clip-path="url(#clip0_12203_85941)">
<path id="Vector" d="M48 0H0V48H48V0Z" fill="var(--fill-0, #0052CC)"/>
<path id="Vector_2" d="M35.5799 11.46H23.4599C23.4599 14.46 25.9198 16.92 28.9198 16.92H31.1398V19.08C31.1398 22.08 33.5999 24.54 36.5999 24.54V12.48C36.6599 11.94 36.1799 11.46 35.5799 11.46Z" fill="var(--fill-0, white)"/>
<path id="Vector_3" d="M29.5799 17.46H17.4599C17.4599 20.46 19.9198 22.92 22.9198 22.92H25.1398V25.08C25.1398 28.08 27.5999 30.54 30.5999 30.54V18.54C30.6599 17.94 30.1799 17.46 29.5799 17.46Z" fill="url(#paint0_linear_12203_85941)"/>
<path id="Vector_4" d="M23.5798 23.5202H11.4598C11.4598 26.5202 13.9198 28.9802 16.9198 28.9802H19.1398V31.1401C19.1398 34.1401 21.5998 36.6002 24.5998 36.6002V24.6002C24.6598 24.0002 24.1798 23.5202 23.5798 23.5202Z" fill="url(#paint1_linear_12203_85941)"/>
</g>
</g>
<defs>
<linearGradient id="paint0_linear_12203_85941" x1="30.3896" y1="17.5062" x2="25.2275" y2="22.8294" gradientUnits="userSpaceOnUse">
<stop offset="0.176" stop-color="white" stop-opacity="0.4"/>
<stop offset="1" stop-color="white"/>
</linearGradient>
<linearGradient id="paint1_linear_12203_85941" x1="24.7266" y1="23.5869" x2="18.7581" y2="29.394" gradientUnits="userSpaceOnUse">
<stop offset="0.176" stop-color="white" stop-opacity="0.4"/>
<stop offset="1" stop-color="white"/>
</linearGradient>
<clipPath id="clip0_12203_85941">
<rect width="48" height="48" rx="4" fill="white"/>
</clipPath>
</defs>
</svg>
