<svg preserveAspectRatio="none" width="100%" height="100%" overflow="visible" style="display: block;" viewBox="0 0 48 48" fill="none" xmlns="http://www.w3.org/2000/svg">
<g id="ServiceNow tickets">
<rect width="48" height="48" rx="4" fill="var(--fill-0, #032D42)"/>
<path id="Layer" fill-rule="evenodd" clip-rule="evenodd" d="M34.1699 11.1583C37.1381 13.1813 39.4214 16.0506 40.7498 19.3741C42.0575 22.7182 42.3481 26.3513 41.5801 29.8399C40.7913 33.3285 38.9855 36.5281 36.3701 38.9846C36.0588 39.2736 35.7059 39.5213 35.3115 39.6864C34.9379 39.8516 34.502 39.9548 34.0868 39.9754C33.6717 39.9961 33.2358 39.9548 32.8207 39.8309C32.4263 39.7071 32.0319 39.5007 31.6998 39.253C30.5997 38.4272 29.375 37.7873 28.0673 37.3745C26.7389 36.941 25.3689 36.7139 23.999 36.7139C22.629 36.7139 21.2591 36.941 19.9514 37.3745C18.6437 37.7873 17.3983 38.4272 16.2982 39.253C15.9661 39.5007 15.5924 39.7071 15.1773 39.8309C14.7829 39.9548 14.347 40.0167 13.9319 39.9961C13.5167 39.9548 13.1016 39.8722 12.7072 39.7071C12.3128 39.542 11.96 39.2942 11.6694 39.0052C9.03325 36.5488 7.20665 33.3492 6.41789 29.8193C5.64988 26.31 5.94047 22.6563 7.28967 19.3122C8.63887 15.9681 10.9429 13.0987 13.9526 11.0758C16.9416 9.07342 20.4911 8 24.1028 8C27.7145 8.02064 31.2016 9.13535 34.1699 11.1583ZM27.4862 34.2987C28.5863 33.8652 29.5826 33.2047 30.4336 32.379C31.2639 31.5326 31.9281 30.5418 32.3848 29.4477C32.8207 28.333 33.0283 27.1564 32.9867 25.9797C32.9867 23.6058 32.0527 21.3351 30.3714 19.6631C28.6693 17.9704 26.386 17.0415 23.999 17.0415C21.6119 17.0415 19.3287 17.9704 17.6474 19.6631C15.9453 21.3351 15.0113 23.6058 15.0113 25.9797C14.9697 27.1564 15.1773 28.333 15.634 29.4477C16.0699 30.5418 16.7341 31.5326 17.5643 32.379C18.4154 33.2047 19.4117 33.8652 20.5118 34.2987C21.6327 34.7322 22.8158 34.9593 23.999 34.918C25.1821 34.9593 26.3653 34.7322 27.4862 34.2987Z" fill="var(--fill-0, #62D84E)"/>
</g>
</svg>
