<svg preserveAspectRatio="none" width="100%" height="100%" overflow="visible" style="display: block;" viewBox="0 0 48 48" fill="none" xmlns="http://www.w3.org/2000/svg">
<g id="Frame 2018778781">
<rect width="48" height="48" rx="4" fill="var(--fill-0, white)"/>
<path id="Vector" d="M41.6256 21.1187H30.7501C30.1496 21.1187 29.6826 21.7869 29.8827 22.3214L32.4849 29.0698C32.6183 29.337 32.3514 29.6711 32.0178 29.6711L28.6818 29.4706C28.5483 29.4706 28.4149 29.5375 28.2814 29.6711L25.7461 33.3459C25.6126 33.5464 25.3457 33.6132 25.0788 33.4796L21.209 30.8738C21.0756 30.7401 20.8754 30.7401 20.6753 30.8738L15.3376 34.4818C15.004 34.7491 14.537 34.415 14.6704 34.0141L16.205 28.6689C16.2717 28.4684 16.1383 28.2012 15.9381 28.1343L13.1358 26.9985C12.8689 26.8648 12.7355 26.5308 12.9357 26.3303L15.4043 23.2568C15.5378 23.1232 15.5378 22.8559 15.4043 22.7223L13.336 19.7156C13.1358 19.4483 13.336 19.0474 13.6696 19.0474L16.9389 18.7802C17.2058 18.7802 17.3392 18.5797 17.3392 18.3125L17.0723 13.769C17.0723 13.435 17.406 13.2345 17.6728 13.3013L21.6761 14.9717C21.8762 15.0385 22.0764 14.9717 22.2099 14.8381L25.0121 11.7646C25.2123 11.4973 25.6126 11.5641 25.7461 11.8982L27.4141 16.1744C27.6142 16.7089 28.2814 16.9094 28.7485 16.5753L35.2871 11.6978C36.0211 11.1632 35.554 9.96055 34.6199 10.0942L30.4165 10.6287C30.2163 10.6287 30.0162 10.5619 29.9495 10.3614L27.681 4.54851C27.4141 3.94717 26.6801 3.81354 26.2131 4.28125L21.2758 9.62648C21.1423 9.76011 20.9422 9.82692 20.742 9.76011L14.2701 7.02068C13.6696 6.75342 13.0691 7.15431 13.0024 7.82246L12.7355 14.504C12.7355 14.7713 12.5353 14.9049 12.3352 14.9049L6.39702 15.3058C5.72982 15.3726 5.32949 16.1076 5.72982 16.7089L9.66634 22.5218C9.79978 22.6555 9.79978 22.9227 9.66634 23.0564L5.6631 27.6666C5.32949 28.0007 5.52965 28.7357 6.06342 28.9361L10.6672 30.9406C10.8673 31.0074 11.0008 31.2747 10.934 31.4751L7.99832 42.9005C7.79816 43.7023 8.73225 44.3037 9.39946 43.836L20.4084 35.9517C20.5418 35.8181 20.742 35.8181 20.9422 35.9517L25.9462 39.493C26.3465 39.7602 26.947 39.6934 27.2139 39.2257L30.3498 34.415C30.4165 34.2814 30.6167 34.2145 30.7501 34.2145L38.2228 35.15C38.8233 35.2168 39.4238 34.7491 39.2236 34.1477L36.0878 26.0631C36.0211 25.8626 36.0878 25.5954 36.3547 25.4617L42.0259 22.7891C42.8266 22.3882 42.5597 21.1187 41.6256 21.1187Z" fill="var(--fill-0, #8039E9)"/>
</g>
</svg>
