<svg preserveAspectRatio="xMidYMid meet" width="100%" height="100%" overflow="visible" style="display: block;" viewBox="0 0 39.9999 35.7347" fill="none" xmlns="http://www.w3.org/2000/svg">
<g id="Group">
<path id="Vector" d="M3.02406 30.6257L4.78808 33.6728C5.15465 34.3142 5.68155 34.8183 6.30012 35.1848L12.6002 24.2795H0C0 24.9897 0.183276 25.7 0.549828 26.3414L3.02406 30.6257Z" fill="var(--fill-0, #0066DA)"/>
<path id="Vector_2" d="M20 11.4522L13.6999 0.546875C13.0814 0.91344 12.5544 1.41747 12.1879 2.05896L0.549828 22.22C0.190017 22.8477 0.000479069 23.5585 0 24.2819H12.6002L20 11.4522Z" fill="var(--fill-0, #00AC47)"/>
<path id="Vector_3" d="M33.6999 35.1848C34.3184 34.8183 34.8453 34.3142 35.2119 33.6728L35.945 32.4127L39.4503 26.3414C39.8166 25.7 39.9999 24.9897 39.9999 24.2795H27.3988L30.0802 29.5489L33.6999 35.1848Z" fill="var(--fill-0, #EA4335)"/>
<path id="Vector_4" d="M20.0002 11.4552L26.3004 0.549847C25.6818 0.183283 24.9716 0 24.2385 0H15.762C15.0289 0 14.3187 0.206193 13.7001 0.549847L20.0002 11.4552Z" fill="var(--fill-0, #00832D)"/>
<path id="Vector_5" d="M27.3999 24.2795H12.6003L6.30018 35.1848C6.91875 35.5514 7.62896 35.7347 8.36203 35.7347H31.6381C32.3712 35.7347 33.0814 35.5285 33.7 35.1848L27.3999 24.2795Z" fill="var(--fill-0, #2684FC)"/>
<path id="Vector_6" d="M33.6312 12.1395L27.8122 2.05896C27.4456 1.41747 26.9187 0.91344 26.3001 0.546875L20 11.4522L27.3998 24.2819H39.9771C39.9771 23.5717 39.7938 22.8615 39.4275 22.22L33.6312 12.1395Z" fill="var(--fill-0, #FFBA00)"/>
</g>
</svg>
